<svg xmlns="http://www.w3.org/2000/svg" viewBox="0 0 128 128" role="img" aria-labelledby="title">
  <title id="title">Aevra</title>
  <defs>
    <linearGradient id="g1" x1="0" y1="0" x2="1" y2="1">
      <stop offset="0%" stop-color="#6a5dff"/>
      <stop offset="60%" stop-color="#3daeff"/>
      <stop offset="100%" stop-color="#00e7ff"/>
    </linearGradient>
    <filter id="shadow" x="-50%" y="-50%" width="200%" height="200%">
      <feDropShadow dx="0" dy="6" stdDeviation="8" flood-color="#000" flood-opacity="0.3"/>
    </filter>
  </defs>
  <rect width="128" height="128" rx="24" fill="#0b1220"/>
  <g transform="translate(8,12) scale(0.82)" filter="url(#shadow)">
    <path d="M56 8c-12 0-36 28-36 44s18 40 36 40c10 0 16-6 22-14 6 8 12 14 22 14 18 0 36-16 36-40S98 8 76 8c-8 0-12 4-20 12C68 12 64 8 56 8z" fill="url(#g1)"/>
    <path d="M46 60c8-18 18-36 30-36 6 0 12 6 12 12 0 6-8 12-20 28-6 8-12 12-18 12-8 0-12-8-6-16z" fill="#ffffff" opacity="0.06"/>
  </g>
</svg>
